<mxfile host="65bd71144e" modified="2020-11-21T12:44:17.759Z" agent="5.0 (X11; Linux x86_64) AppleWebKit/537.36 (KHTML, like Gecko) Code/1.51.1 Chrome/83.0.4103.122 Electron/9.3.3 Safari/537.36" etag="nlTb2eG5tOtauARgVGbK" version="13.6.5">
    <diagram id="4joADtHwaCVcz0AytK0O" name="Page-1">
        <mxGraphModel dx="820" dy="451" grid="0" gridSize="10" guides="1" tooltips="1" connect="0" arrows="0" fold="1" page="0" pageScale="1" pageWidth="827" pageHeight="1169" math="0" shadow="0">
            <root>
                <mxCell id="0"/>
                <mxCell id="1" parent="0"/>
                <mxCell id="DuJh88yz29OxQCDJcD6v-1" value="&lt;font style=&quot;font-size: 20px&quot; color=&quot;#663300&quot;&gt;Database diagram&lt;/font&gt;" style="label;whiteSpace=wrap;html=1;image=data:image/png,iVBORw0KGgoAAAANSUhEUgAAAOEAAADhCAMAAAAJbSJIAAAAYFBMVEWAgID///97e3t9fX14eHjX19eCgoLCwsL7+/vw8PCOjo6Hh4f4+Pjz8/OEhITb29vh4eGXl5eqqqqdnZ3BwcHn5+empqbIyMi1tbXS0tLk5OS7u7uZmZmgoKCxsbHr6+vogKcKAAAPKklEQVR4nN2d15qbMBCFsQYwiF5MMe393zISuFCEEG2NMjf5Nsmu+VeARpozR8rtzLBt8+FreZ6nbdzv7R85DU3z/OejcRzHto0zr0E544cazkNLi7AKLEVtA41D/QQC3cJBFGap9nTOQD2Y0G60OKywqxAKAFDEgvxPIN+guLgKY605lvM4QttLQ+zCGjIWKvl+F4epZx91XYcQmj6BozfcZrQxKLmNcXj3zQMubjehmWeliw6DG2AiN8jyvZS7CA2vDnRAh8P1MMmLCNfanlt2O2GTRqAeP3QMSlBRkD62vn82Ej6LgOCdT/ehRAhn/ibILYQNwTvz1pyDBFw8/oDQueMf4L0hEU6dUwkNL/kZ3gtShdA/jdCJ8W/xXpAQpCueSHHCJtOvwEcDkBUL36yihA9ye/4arBeA9EwwFRAjbMKrDN83kJIJjaMIoVn/xcS+PpAeCyQ7y4RGoV/p/hwEwvl+Qs+6LJ9CJ4/guY/QvOADOAyAgj918Am1Sw/gK1TMHUYuYXb1AewClPs2wgZLMIBdqNX8S3We0HOlGMAuEJ5ddcwS5opEgOROtbyVhKn662teGQAzU+MMoXSAJFQ2IpswleYdMwhNmFCT6hH8BCis1w2LsPn1pW4NsBgrKgahHcg5hCQgEiKs5XwI21BTAcKnhK/Rb0CzTCjvPUoDqkXCXOJ7lAaM9xrHhIbcQ8gYxDGhJvkQTp/EMWEo+RCSZUbBJbTdX1/g7gDMJZR7qugCTB7hXfrHkMz6Go+wlv4xXCKM/ntC2WdDGnxC/N8Tlv89YfLfE8b/w2zh8Qi9/2DGRw2P0Pn15e2PhaztP5gQUcYnlH0BTAgffEJH9hlxst022cWQ/W2Kxnv7E0LDknoQpzum0722XOoJAyYVb8aOcCXxIKJ6gsMgNGUq/g4D8FSXwarMeNIS6pMd75nq2l3SR3HyHmUQvjZxMikR32UZm0f4flBDCRHV10apzd/FeO/6yzeKn53gfHivjncxPmlrIVlugz66qIhPaH1u4lQOyVcXPa1Js7ATpX4lYp48+RtY31SmXtprc79vIjOS5GFE1VcP3eh8QmtYuomvKX8eBkC/eJ/AEqGC+rmrH1x+GIfyUrJuWCQc5Xb3aw8j6AP1Bd1nWiQc5+dmcl1GgGRQSjPoNtMyoYJGohQv+MtGPPEAtRxJLlspkAChgsYSuBxfjxFUa5xod9VPPuH7uydy1Bxf614FRqvFa0kkRqhPhIxGXl2HEVCZT9a6b8moEKECCkNU/AzVK2RygNSE0YL4KdCLETI1cGRhUli/HkhAVsHo6DK+6z1RQkWtWb0ohhdavxtIghdqrMtyyu9SSJhQQRG7w8/JK/SLVyuoqJrxH/D6O/XihORhnOsMc/IITrBR4NCRj6vyuX7DbHApKwjJfw5nmxhtLfyrpm7apx7ms10xj1HuvIqQ3+Bne3Fknfx6JS9ON7r7800/djFufVlHSD6hYuxBfsPx40g5w/ijc4tQotjn9sJ60+YsPqHO+qClfluDmrfoR2JSXxMdh+lzoSv9WTFeeSJ56SiQy5qBRuEQzMCFvSY11JoGrLJO+UPXxkz/9QZCwmiJ9BQTzEdeJHQ4Vw9o56OErJLaKAl9VlPr7I/YREi+zS2ErXCMxkuLJLBcBX1ssIAVb08spFiYoOW+uBXWI5z1B9is+kIQrnQWsZ2GepmlcVxkddhG8or2izor4jTNvWez1uTLqzhv8B26NoByflb6u3BSvj3HLm0iWXVmS93h5wbJi5fsOfbqSxEEMXeGPDMemYC7yn7lHnlBBPcjfMZWxqPASCSB4hNmYvUYCllwUqnDw/YyLJof8gnFm0fbdDj9k/v1cU8sodF7EXK1ieu6Ebqk/9QbtslXL2EQtxvBmJ3y5yBBVa3kGP+/UZj+PXHXZ4EQDH/MWKmwqb2SLnGCOvXMg1wrDdO7kyR328IMjSwkxoT+1rwZWgPAKMufu15A9jPPKqzv2EEYtcxM1Sa7BKataaUKAc0xzTWpmO2Yz/xeB6DutdCEcPSjJ4TeAfX7FhS5OKjCrLinraUuCf8T9Cuvdd+9x1mdRAF20VHuoOPkeaoYOk7W9lo+0NVFt5bo/0P7b+p72XHURzKEbVNCUzIRxiD6RfpZQlktI9qYVM3YurZEWsSxin2O0JZV6w0l4/XN1CY2cipMAbN2r8aZd/eHL5fBUBdgvdYB3J6Z6DXMnnyI4L5mQpOva3uvPKRDBPc9dCmX0PrkPE95VG00EP6ko5i/1/ZVSjeBRJOGGn1eMv6SNvGb9RjJ5RVfrwC1Nw9WS/ulfVuJ9NdFe7EAt/fkeWiRsOx9KcWdqva0lzcDL2gTSTYzFGEUVx/GkXQvQwK7+vpgV/t5UVFbF6AOC7h0dbtMOE5+8uuamKLRzNCmmwKVGRQNE9irOgkjd6Rq6pYMIrUnNN7roG7lP8aZBLLGFU0jEtAmvtZN070AM1OuoGl7B6j61JW96kZBrH6ojkeR3ALxD+VewwDAU2d9OxLSJn7Wvn2B/zuMPFF+f7MCckOGcPI7dYtWSBFmVV2awvrt5AEqZlb2egsF4Row6OxzJLzqZ08kHT72ReW9xES8yg0QM3/azcmTHzySAFY4c2iQPSh7rqnjz+kvKWToqn/3TAJSrdqb0xA9htnzKqXCIGsf/+K0zFL/4DgkWr/DGafgfB9tR6zUYqhc4Z7T1S9PowRACp67N7t4TvqW1qpNQOeL2owHle0dr8GEV1GSf5KemU1/vet9otCkc2NCScu11mFHy70OlkuXC8t31qJgg54G1IDpIz0KhxZuLViv2uujIaRYgdjhgEaOmdssmxRDZJ6ddnCwP9b00qzClk7GQbBu1hbayH92rSDJyMCJfZCdznUq8Qlni4eAAkHGltNunl5ahLT0CYNzOt+SxM9RnYpFC6lF7j3NFeeR2hxt22ZNFCArW3/smWHbDqGlR63GcVFkNYmsKOI4fakSt5yz+qzdzdpEvuoLoQuIE510YV+FT7hkQUsH8pfiRMMPecMnQCiga0MIF7+BNHwRaeICoZCTAhV7ZesOsNsfhl+LSRMXCEU9aGkqnM2mwoeHo4WWcArMJ1xjEkUm53Kh3+MQOm/lkZloeHvtc0omU5tV3c+jpB05q+VtfG3iBrfr9tje5faWtWG/G3FWX8+Cb6KgSHj8U2mvTEBTrgOmS9v00xrD1vR23Pw6JmwYnU+imCQNA1zWd+3hbAE1bOeZx2Fp7WstskafPVGb7LWdpypMxcVlUse5L9QqYjiNn8d1ErRHsu9dgI1N56eEj4OWeO0ij1yubuEoqQuahr41ilqrSkzTok4isgpp7/HD9HvueFE5VQwdbp/U73D6xuGqxC7GjhcsQkNWzReNscibSSi1l/DYnpVNKLGFKct0j6ncCyVFZIkv2YSGDBKMaSDGeVZTx/LuDykVpu/ivMHNvMvXDnffZ0KSQG/5rM/XJr4bTmzZEFH5ztZCPuFnPjEqqSYNNXznh4bOr3KjbwFZCju6LgB9S53pQh0f9ZICTRa5d78IaOOlfvz+aZ7m9R33aKhVL9u+L2gTLQWs/oInvr4YeliMN/VlT4WhIKq5uP8lqNEgFS1BxFVw+LZNryvcm9Y2Y1XIF8MdFradYtaC4scBUA+3+bxl5V5LODmS1QyvOHEAhCONwUNfJuz2oQCPd5Iel2MESMZrwabTRQm5KH1ToC9jfSUBJtLDSXXIfC0XBF0Fg+k+tpnBNQTRoOoMs5zmo6sUc8L6tEn1w05/74AJCJj1dv/jOCTq9QUu88B5v/6pyhQQZpfae9I9YTezOeGek1c/ulvJ3TljTGf0ixEr/NpQNLM576TBhpLJPjpydyZz8q9h48saRzpwZ5VCVIH5R6aCb4eR2QJBPryOVZ57gJJ54Z6jZYFy+v3a2grG/nz941GNZrG1roLjnoZhNFRnepp1Ii19BIXHlbcVE9e2lYTU85z5Uv0GHUv3YA1mW8GyyNjxP5rZz8MnZJWAQa0WhReOn9bRzsLfFw7puCryZes9ttH4Fs89UITM6JxnXoTk0VS3vWg7YxS3rO+ekK+gP2NOvc1VEGB5HF/RqRMtHb6OH3MDCz0LENBxkqWesOWLF8z9Grd67lGR6RoxgmE+tTSuwyQqA4yx5bqu3gvXtSzy10FZJWEWp9pzlQ2TzTOJ3+4qSDKmbV50hmGTcByzF45D/87YJOBoCq74a895wGStnyy8WE8PQ4sWMo2d5wH/1jnRIIn/Yo6xUSPcH0iEi/VS2v1BpYkiXSxHnK1O12iZiNj8uKC2goKT0DHaxFbRlqR/5A/ZpNUK/RefcJVKgaQwZ5sKdraC6zKIkVphRLj2xGOaP+JaIMHaEjZtx1mf8FrDnzKu4284epxKmqyI5JEHqhPtJs/KbY1jZ514TKWEOKoFOnmWgioTS9p6szGHV0fp5Zhwj0YBaCMd0NRZa9Z3URjOI7/vNz0f+HqwCMXfphxQqtmzyjC755r/fDQmbRsxhhka/Zpkcmbz8D0tj7MksI7xFfzDE49fSwZQPln2IGg2TtJxvf2FHOfJPxlChmLonBOPWZbsZ3wOmizyGJooqU88nuq+GISOXB5Y/RA+8fhCRaZ1AYwVAVO5t3VS/HVMD1ObI7wV15YnzMRUAT1PKOFxwDOnjM0SSjiKM4CzhLe7XC/U+dO3ZgkHdiGXj5l6Lp/w9ryyVGgYbDOdRcKbLYmhMExtrQQJp7YhlwzEMWBZJLy8cI9uFiX8RfcC4e2WXsD8ihPLtiSLhBcVtXUBSra4B7ZMeLv55TW0UOMgN6jA3rsI4e2mXfLE41KopClGSE88vorhXheAhDxzVhCScSyvwwgQCVf5xAnJ8xheQoAJyK1XFPjWEF7AVLC1O4pX7TqvI6QnuyU/tPkEpM/YCh5HeKO6vWjp+LqT8NxkgwHQBsIbLehF5yvahniqO3eg8ymEN3oCQQJ/dNQ6IFUJta32IpsJaTzj0j1Zgkl+vBXd98gGdhHeWtleueZguzVwoBK6Yq/Pz17CltJPw+M8BTu4zlfweYDzzRGEbTheGmK39VzZU/2jFStwqWniUYXzwwjbsKn9SkQ9StR1pJ2xoOLiipq/HKoKOJawC9v0NWopiC194CjIivbfdSuo6iLXnkcdL9iPMwg/QR0F6ZHH99l4OwueeBH/AM8y2q1OXevUAAAAAElFTkSuQmCC;fillColor=#60a917;strokeColor=#2D7600;fontColor=#ffffff;" parent="1" vertex="1">
                    <mxGeometry x="312.5" y="280" width="240" height="60" as="geometry"/>
                </mxCell>
                <mxCell id="DuJh88yz29OxQCDJcD6v-2" value="&lt;font color=&quot;#663300&quot;&gt;Based on multitanent architecture&lt;/font&gt;" style="label;whiteSpace=wrap;html=1;align=center;verticalAlign=bottom;spacingLeft=0;spacingBottom=4;imageAlign=center;imageVerticalAlign=top;image=data:image/png,iVBORw0KGgoAAAANSUhEUgAAAOEAAADhCAMAAAAJbSJIAAAAYFBMVEWAgID///97e3t9fX14eHjX19eCgoLCwsL7+/vw8PCOjo6Hh4f4+Pjz8/OEhITb29vh4eGXl5eqqqqdnZ3BwcHn5+empqbIyMi1tbXS0tLk5OS7u7uZmZmgoKCxsbHr6+vogKcKAAAPKklEQVR4nN2d15qbMBCFsQYwiF5MMe393zISuFCEEG2NMjf5Nsmu+VeARpozR8rtzLBt8+FreZ6nbdzv7R85DU3z/OejcRzHto0zr0E544cazkNLi7AKLEVtA41D/QQC3cJBFGap9nTOQD2Y0G60OKywqxAKAFDEgvxPIN+guLgKY605lvM4QttLQ+zCGjIWKvl+F4epZx91XYcQmj6BozfcZrQxKLmNcXj3zQMubjehmWeliw6DG2AiN8jyvZS7CA2vDnRAh8P1MMmLCNfanlt2O2GTRqAeP3QMSlBRkD62vn82Ej6LgOCdT/ehRAhn/ibILYQNwTvz1pyDBFw8/oDQueMf4L0hEU6dUwkNL/kZ3gtShdA/jdCJ8W/xXpAQpCueSHHCJtOvwEcDkBUL36yihA9ye/4arBeA9EwwFRAjbMKrDN83kJIJjaMIoVn/xcS+PpAeCyQ7y4RGoV/p/hwEwvl+Qs+6LJ9CJ4/guY/QvOADOAyAgj918Am1Sw/gK1TMHUYuYXb1AewClPs2wgZLMIBdqNX8S3We0HOlGMAuEJ5ddcwS5opEgOROtbyVhKn662teGQAzU+MMoXSAJFQ2IpswleYdMwhNmFCT6hH8BCis1w2LsPn1pW4NsBgrKgahHcg5hCQgEiKs5XwI21BTAcKnhK/Rb0CzTCjvPUoDqkXCXOJ7lAaM9xrHhIbcQ8gYxDGhJvkQTp/EMWEo+RCSZUbBJbTdX1/g7gDMJZR7qugCTB7hXfrHkMz6Go+wlv4xXCKM/ntC2WdDGnxC/N8Tlv89YfLfE8b/w2zh8Qi9/2DGRw2P0Pn15e2PhaztP5gQUcYnlH0BTAgffEJH9hlxst022cWQ/W2Kxnv7E0LDknoQpzum0722XOoJAyYVb8aOcCXxIKJ6gsMgNGUq/g4D8FSXwarMeNIS6pMd75nq2l3SR3HyHmUQvjZxMikR32UZm0f4flBDCRHV10apzd/FeO/6yzeKn53gfHivjncxPmlrIVlugz66qIhPaH1u4lQOyVcXPa1Js7ATpX4lYp48+RtY31SmXtprc79vIjOS5GFE1VcP3eh8QmtYuomvKX8eBkC/eJ/AEqGC+rmrH1x+GIfyUrJuWCQc5Xb3aw8j6AP1Bd1nWiQc5+dmcl1GgGRQSjPoNtMyoYJGohQv+MtGPPEAtRxJLlspkAChgsYSuBxfjxFUa5xod9VPPuH7uydy1Bxf614FRqvFa0kkRqhPhIxGXl2HEVCZT9a6b8moEKECCkNU/AzVK2RygNSE0YL4KdCLETI1cGRhUli/HkhAVsHo6DK+6z1RQkWtWb0ohhdavxtIghdqrMtyyu9SSJhQQRG7w8/JK/SLVyuoqJrxH/D6O/XihORhnOsMc/IITrBR4NCRj6vyuX7DbHApKwjJfw5nmxhtLfyrpm7apx7ms10xj1HuvIqQ3+Bne3Fknfx6JS9ON7r7800/djFufVlHSD6hYuxBfsPx40g5w/ijc4tQotjn9sJ60+YsPqHO+qClfluDmrfoR2JSXxMdh+lzoSv9WTFeeSJ56SiQy5qBRuEQzMCFvSY11JoGrLJO+UPXxkz/9QZCwmiJ9BQTzEdeJHQ4Vw9o56OErJLaKAl9VlPr7I/YREi+zS2ErXCMxkuLJLBcBX1ssIAVb08spFiYoOW+uBXWI5z1B9is+kIQrnQWsZ2GepmlcVxkddhG8or2izor4jTNvWez1uTLqzhv8B26NoByflb6u3BSvj3HLm0iWXVmS93h5wbJi5fsOfbqSxEEMXeGPDMemYC7yn7lHnlBBPcjfMZWxqPASCSB4hNmYvUYCllwUqnDw/YyLJof8gnFm0fbdDj9k/v1cU8sodF7EXK1ieu6Ebqk/9QbtslXL2EQtxvBmJ3y5yBBVa3kGP+/UZj+PXHXZ4EQDH/MWKmwqb2SLnGCOvXMg1wrDdO7kyR328IMjSwkxoT+1rwZWgPAKMufu15A9jPPKqzv2EEYtcxM1Sa7BKataaUKAc0xzTWpmO2Yz/xeB6DutdCEcPSjJ4TeAfX7FhS5OKjCrLinraUuCf8T9Cuvdd+9x1mdRAF20VHuoOPkeaoYOk7W9lo+0NVFt5bo/0P7b+p72XHURzKEbVNCUzIRxiD6RfpZQlktI9qYVM3YurZEWsSxin2O0JZV6w0l4/XN1CY2cipMAbN2r8aZd/eHL5fBUBdgvdYB3J6Z6DXMnnyI4L5mQpOva3uvPKRDBPc9dCmX0PrkPE95VG00EP6ko5i/1/ZVSjeBRJOGGn1eMv6SNvGb9RjJ5RVfrwC1Nw9WS/ulfVuJ9NdFe7EAt/fkeWiRsOx9KcWdqva0lzcDL2gTSTYzFGEUVx/GkXQvQwK7+vpgV/t5UVFbF6AOC7h0dbtMOE5+8uuamKLRzNCmmwKVGRQNE9irOgkjd6Rq6pYMIrUnNN7roG7lP8aZBLLGFU0jEtAmvtZN070AM1OuoGl7B6j61JW96kZBrH6ojkeR3ALxD+VewwDAU2d9OxLSJn7Wvn2B/zuMPFF+f7MCckOGcPI7dYtWSBFmVV2awvrt5AEqZlb2egsF4Row6OxzJLzqZ08kHT72ReW9xES8yg0QM3/azcmTHzySAFY4c2iQPSh7rqnjz+kvKWToqn/3TAJSrdqb0xA9htnzKqXCIGsf/+K0zFL/4DgkWr/DGafgfB9tR6zUYqhc4Z7T1S9PowRACp67N7t4TvqW1qpNQOeL2owHle0dr8GEV1GSf5KemU1/vet9otCkc2NCScu11mFHy70OlkuXC8t31qJgg54G1IDpIz0KhxZuLViv2uujIaRYgdjhgEaOmdssmxRDZJ6ddnCwP9b00qzClk7GQbBu1hbayH92rSDJyMCJfZCdznUq8Qlni4eAAkHGltNunl5ahLT0CYNzOt+SxM9RnYpFC6lF7j3NFeeR2hxt22ZNFCArW3/smWHbDqGlR63GcVFkNYmsKOI4fakSt5yz+qzdzdpEvuoLoQuIE510YV+FT7hkQUsH8pfiRMMPecMnQCiga0MIF7+BNHwRaeICoZCTAhV7ZesOsNsfhl+LSRMXCEU9aGkqnM2mwoeHo4WWcArMJ1xjEkUm53Kh3+MQOm/lkZloeHvtc0omU5tV3c+jpB05q+VtfG3iBrfr9tje5faWtWG/G3FWX8+Cb6KgSHj8U2mvTEBTrgOmS9v00xrD1vR23Pw6JmwYnU+imCQNA1zWd+3hbAE1bOeZx2Fp7WstskafPVGb7LWdpypMxcVlUse5L9QqYjiNn8d1ErRHsu9dgI1N56eEj4OWeO0ij1yubuEoqQuahr41ilqrSkzTok4isgpp7/HD9HvueFE5VQwdbp/U73D6xuGqxC7GjhcsQkNWzReNscibSSi1l/DYnpVNKLGFKct0j6ncCyVFZIkv2YSGDBKMaSDGeVZTx/LuDykVpu/ivMHNvMvXDnffZ0KSQG/5rM/XJr4bTmzZEFH5ztZCPuFnPjEqqSYNNXznh4bOr3KjbwFZCju6LgB9S53pQh0f9ZICTRa5d78IaOOlfvz+aZ7m9R33aKhVL9u+L2gTLQWs/oInvr4YeliMN/VlT4WhIKq5uP8lqNEgFS1BxFVw+LZNryvcm9Y2Y1XIF8MdFradYtaC4scBUA+3+bxl5V5LODmS1QyvOHEAhCONwUNfJuz2oQCPd5Iel2MESMZrwabTRQm5KH1ToC9jfSUBJtLDSXXIfC0XBF0Fg+k+tpnBNQTRoOoMs5zmo6sUc8L6tEn1w05/74AJCJj1dv/jOCTq9QUu88B5v/6pyhQQZpfae9I9YTezOeGek1c/ulvJ3TljTGf0ixEr/NpQNLM576TBhpLJPjpydyZz8q9h48saRzpwZ5VCVIH5R6aCb4eR2QJBPryOVZ57gJJ54Z6jZYFy+v3a2grG/nz941GNZrG1roLjnoZhNFRnepp1Ii19BIXHlbcVE9e2lYTU85z5Uv0GHUv3YA1mW8GyyNjxP5rZz8MnZJWAQa0WhReOn9bRzsLfFw7puCryZes9ttH4Fs89UITM6JxnXoTk0VS3vWg7YxS3rO+ekK+gP2NOvc1VEGB5HF/RqRMtHb6OH3MDCz0LENBxkqWesOWLF8z9Grd67lGR6RoxgmE+tTSuwyQqA4yx5bqu3gvXtSzy10FZJWEWp9pzlQ2TzTOJ3+4qSDKmbV50hmGTcByzF45D/87YJOBoCq74a895wGStnyy8WE8PQ4sWMo2d5wH/1jnRIIn/Yo6xUSPcH0iEi/VS2v1BpYkiXSxHnK1O12iZiNj8uKC2goKT0DHaxFbRlqR/5A/ZpNUK/RefcJVKgaQwZ5sKdraC6zKIkVphRLj2xGOaP+JaIMHaEjZtx1mf8FrDnzKu4284epxKmqyI5JEHqhPtJs/KbY1jZ514TKWEOKoFOnmWgioTS9p6szGHV0fp5Zhwj0YBaCMd0NRZa9Z3URjOI7/vNz0f+HqwCMXfphxQqtmzyjC755r/fDQmbRsxhhka/Zpkcmbz8D0tj7MksI7xFfzDE49fSwZQPln2IGg2TtJxvf2FHOfJPxlChmLonBOPWZbsZ3wOmizyGJooqU88nuq+GISOXB5Y/RA+8fhCRaZ1AYwVAVO5t3VS/HVMD1ObI7wV15YnzMRUAT1PKOFxwDOnjM0SSjiKM4CzhLe7XC/U+dO3ZgkHdiGXj5l6Lp/w9ryyVGgYbDOdRcKbLYmhMExtrQQJp7YhlwzEMWBZJLy8cI9uFiX8RfcC4e2WXsD8ihPLtiSLhBcVtXUBSra4B7ZMeLv55TW0UOMgN6jA3rsI4e2mXfLE41KopClGSE88vorhXheAhDxzVhCScSyvwwgQCVf5xAnJ8xheQoAJyK1XFPjWEF7AVLC1O4pX7TqvI6QnuyU/tPkEpM/YCh5HeKO6vWjp+LqT8NxkgwHQBsIbLehF5yvahniqO3eg8ymEN3oCQQJ/dNQ6IFUJta32IpsJaTzj0j1Zgkl+vBXd98gGdhHeWtleueZguzVwoBK6Yq/Pz17CltJPw+M8BTu4zlfweYDzzRGEbTheGmK39VzZU/2jFStwqWniUYXzwwjbsKn9SkQ9StR1pJ2xoOLiipq/HKoKOJawC9v0NWopiC194CjIivbfdSuo6iLXnkcdL9iPMwg/QR0F6ZHH99l4OwueeBH/AM8y2q1OXevUAAAAAElFTkSuQmCC;" parent="1" vertex="1">
                    <mxGeometry x="312.5" y="160" width="240" height="80" as="geometry"/>
                </mxCell>
                <mxCell id="DuJh88yz29OxQCDJcD6v-3" value="&lt;b&gt;&lt;font style=&quot;font-size: 16px&quot; color=&quot;#994c00&quot;&gt;Library management system android app&lt;/font&gt;&lt;/b&gt;" style="rounded=1;align=center;fillColor=#f5f5f5;strokeColor=#666666;html=1;fontSize=12;spacingLeft=26;fontColor=#333333;" parent="1" vertex="1">
                    <mxGeometry x="180" y="20" width="500" height="50" as="geometry"/>
                </mxCell>
                <mxCell id="DuJh88yz29OxQCDJcD6v-5" value="&lt;font color=&quot;#994c00&quot;&gt;&lt;span style=&quot;font-size: 16px&quot;&gt;&lt;b&gt;Stack used react-native for frontend and node js for backend&lt;/b&gt;&lt;/span&gt;&lt;/font&gt;" style="rounded=1;align=left;fillColor=#f5f5f5;strokeColor=#666666;html=1;fontSize=12;spacingLeft=26;fontColor=#333333;" parent="1" vertex="1">
                    <mxGeometry x="180" y="80" width="505" height="50" as="geometry"/>
                </mxCell>
                <mxCell id="DuJh88yz29OxQCDJcD6v-6" value="permissons" style="swimlane;fontStyle=0;childLayout=stackLayout;horizontal=1;startSize=26;horizontalStack=0;resizeParent=1;resizeParentMax=0;resizeLast=0;collapsible=1;marginBottom=0;align=center;fontSize=14;verticalAlign=middle;strokeColor=#3700CC;fillColor=#6a00ff;fontColor=#ffffff;" parent="1" vertex="1">
                    <mxGeometry x="370" y="450" width="160" height="176" as="geometry"/>
                </mxCell>
                <mxCell id="DuJh88yz29OxQCDJcD6v-7" value="library_id" style="text;strokeColor=#666666;fillColor=#f5f5f5;spacingLeft=4;spacingRight=4;overflow=hidden;rotatable=0;points=[[0,0.5],[1,0.5]];portConstraint=eastwest;fontSize=12;fontColor=#333333;" parent="DuJh88yz29OxQCDJcD6v-6" vertex="1">
                    <mxGeometry y="26" width="160" height="30" as="geometry"/>
                </mxCell>
                <mxCell id="DuJh88yz29OxQCDJcD6v-8" value="user_id" style="text;strokeColor=#666666;fillColor=#f5f5f5;spacingLeft=4;spacingRight=4;overflow=hidden;rotatable=0;points=[[0,0.5],[1,0.5]];portConstraint=eastwest;fontSize=12;fontColor=#333333;" parent="DuJh88yz29OxQCDJcD6v-6" vertex="1">
                    <mxGeometry y="56" width="160" height="30" as="geometry"/>
                </mxCell>
                <mxCell id="DuJh88yz29OxQCDJcD6v-9" value="is_librarian" style="text;strokeColor=#666666;fillColor=#f5f5f5;spacingLeft=4;spacingRight=4;overflow=hidden;rotatable=0;points=[[0,0.5],[1,0.5]];portConstraint=eastwest;fontSize=12;fontColor=#333333;" parent="DuJh88yz29OxQCDJcD6v-6" vertex="1">
                    <mxGeometry y="86" width="160" height="30" as="geometry"/>
                </mxCell>
                <mxCell id="DuJh88yz29OxQCDJcD6v-10" value="is_maintainer" style="text;strokeColor=#666666;fillColor=#f5f5f5;spacingLeft=4;spacingRight=4;overflow=hidden;rotatable=0;points=[[0,0.5],[1,0.5]];portConstraint=eastwest;fontSize=12;fontColor=#333333;" parent="DuJh88yz29OxQCDJcD6v-6" vertex="1">
                    <mxGeometry y="116" width="160" height="30" as="geometry"/>
                </mxCell>
                <mxCell id="DuJh88yz29OxQCDJcD6v-16" value="is_borrower" style="text;strokeColor=#666666;fillColor=#f5f5f5;spacingLeft=4;spacingRight=4;overflow=hidden;rotatable=0;points=[[0,0.5],[1,0.5]];portConstraint=eastwest;fontSize=12;fontColor=#333333;" parent="DuJh88yz29OxQCDJcD6v-6" vertex="1">
                    <mxGeometry y="146" width="160" height="30" as="geometry"/>
                </mxCell>
                <mxCell id="DuJh88yz29OxQCDJcD6v-11" value="user" style="swimlane;fontStyle=0;childLayout=stackLayout;horizontal=1;startSize=26;horizontalStack=0;resizeParent=1;resizeParentMax=0;resizeLast=0;collapsible=1;marginBottom=0;align=center;fontSize=14;strokeColor=#3700CC;fillColor=#6a00ff;fontColor=#ffffff;" parent="1" vertex="1">
                    <mxGeometry x="90" y="430" width="160" height="236" as="geometry"/>
                </mxCell>
                <mxCell id="DuJh88yz29OxQCDJcD6v-12" value="id" style="text;strokeColor=#666666;fillColor=#f5f5f5;spacingLeft=4;spacingRight=4;overflow=hidden;rotatable=0;points=[[0,0.5],[1,0.5]];portConstraint=eastwest;fontSize=12;fontColor=#333333;" parent="DuJh88yz29OxQCDJcD6v-11" vertex="1">
                    <mxGeometry y="26" width="160" height="30" as="geometry"/>
                </mxCell>
                <mxCell id="DuJh88yz29OxQCDJcD6v-13" value="name" style="text;spacingLeft=4;spacingRight=4;overflow=hidden;rotatable=0;points=[[0,0.5],[1,0.5]];portConstraint=eastwest;fontSize=12;fillColor=#f5f5f5;strokeColor=#666666;fontColor=#333333;" parent="DuJh88yz29OxQCDJcD6v-11" vertex="1">
                    <mxGeometry y="56" width="160" height="30" as="geometry"/>
                </mxCell>
                <mxCell id="DuJh88yz29OxQCDJcD6v-14" value="email" style="text;strokeColor=#666666;fillColor=#f5f5f5;spacingLeft=4;spacingRight=4;overflow=hidden;rotatable=0;points=[[0,0.5],[1,0.5]];portConstraint=eastwest;fontSize=12;fontColor=#333333;" parent="DuJh88yz29OxQCDJcD6v-11" vertex="1">
                    <mxGeometry y="86" width="160" height="30" as="geometry"/>
                </mxCell>
                <mxCell id="DuJh88yz29OxQCDJcD6v-15" value="number" style="text;strokeColor=#666666;fillColor=#f5f5f5;spacingLeft=4;spacingRight=4;overflow=hidden;rotatable=0;points=[[0,0.5],[1,0.5]];portConstraint=eastwest;fontSize=12;fontColor=#333333;" parent="DuJh88yz29OxQCDJcD6v-11" vertex="1">
                    <mxGeometry y="116" width="160" height="30" as="geometry"/>
                </mxCell>
                <mxCell id="DuJh88yz29OxQCDJcD6v-17" value="street_number" style="text;strokeColor=#666666;fillColor=#f5f5f5;spacingLeft=4;spacingRight=4;overflow=hidden;rotatable=0;points=[[0,0.5],[1,0.5]];portConstraint=eastwest;fontSize=12;fontColor=#333333;" parent="DuJh88yz29OxQCDJcD6v-11" vertex="1">
                    <mxGeometry y="146" width="160" height="30" as="geometry"/>
                </mxCell>
                <mxCell id="DuJh88yz29OxQCDJcD6v-19" value="pin_code" style="text;strokeColor=#666666;fillColor=#f5f5f5;spacingLeft=4;spacingRight=4;overflow=hidden;rotatable=0;points=[[0,0.5],[1,0.5]];portConstraint=eastwest;fontSize=12;fontColor=#333333;" parent="DuJh88yz29OxQCDJcD6v-11" vertex="1">
                    <mxGeometry y="176" width="160" height="30" as="geometry"/>
                </mxCell>
                <mxCell id="DuJh88yz29OxQCDJcD6v-20" value="city" style="text;strokeColor=#666666;fillColor=#f5f5f5;spacingLeft=4;spacingRight=4;overflow=hidden;rotatable=0;points=[[0,0.5],[1,0.5]];portConstraint=eastwest;fontSize=12;fontColor=#333333;" parent="DuJh88yz29OxQCDJcD6v-11" vertex="1">
                    <mxGeometry y="206" width="160" height="30" as="geometry"/>
                </mxCell>
                <mxCell id="DuJh88yz29OxQCDJcD6v-22" value="" style="edgeStyle=entityRelationEdgeStyle;fontSize=12;html=1;endArrow=ERoneToMany;entryX=0;entryY=0.5;entryDx=0;entryDy=0;" parent="1" source="DuJh88yz29OxQCDJcD6v-17" target="DuJh88yz29OxQCDJcD6v-8" edge="1">
                    <mxGeometry width="100" height="100" relative="1" as="geometry">
                        <mxPoint x="360" y="660" as="sourcePoint"/>
                        <mxPoint x="460" y="560" as="targetPoint"/>
                    </mxGeometry>
                </mxCell>
                <mxCell id="DuJh88yz29OxQCDJcD6v-23" value="library" style="swimlane;fontStyle=0;childLayout=stackLayout;horizontal=1;startSize=26;horizontalStack=0;resizeParent=1;resizeParentMax=0;resizeLast=0;collapsible=1;marginBottom=0;align=center;fontSize=14;strokeColor=#3700CC;fillColor=#6a00ff;fontColor=#ffffff;" parent="1" vertex="1">
                    <mxGeometry x="620" y="420" width="160" height="236" as="geometry"/>
                </mxCell>
                <mxCell id="DuJh88yz29OxQCDJcD6v-24" value="id" style="text;strokeColor=#666666;fillColor=#f5f5f5;spacingLeft=4;spacingRight=4;overflow=hidden;rotatable=0;points=[[0,0.5],[1,0.5]];portConstraint=eastwest;fontSize=12;fontColor=#333333;" parent="DuJh88yz29OxQCDJcD6v-23" vertex="1">
                    <mxGeometry y="26" width="160" height="30" as="geometry"/>
                </mxCell>
                <mxCell id="DuJh88yz29OxQCDJcD6v-25" value="name" style="text;spacingLeft=4;spacingRight=4;overflow=hidden;rotatable=0;points=[[0,0.5],[1,0.5]];portConstraint=eastwest;fontSize=12;fillColor=#f5f5f5;strokeColor=#666666;fontColor=#333333;" parent="DuJh88yz29OxQCDJcD6v-23" vertex="1">
                    <mxGeometry y="56" width="160" height="30" as="geometry"/>
                </mxCell>
                <mxCell id="DuJh88yz29OxQCDJcD6v-26" value="email" style="text;strokeColor=#666666;fillColor=#f5f5f5;spacingLeft=4;spacingRight=4;overflow=hidden;rotatable=0;points=[[0,0.5],[1,0.5]];portConstraint=eastwest;fontSize=12;fontColor=#333333;" parent="DuJh88yz29OxQCDJcD6v-23" vertex="1">
                    <mxGeometry y="86" width="160" height="30" as="geometry"/>
                </mxCell>
                <mxCell id="DuJh88yz29OxQCDJcD6v-27" value="number" style="text;strokeColor=#666666;fillColor=#f5f5f5;spacingLeft=4;spacingRight=4;overflow=hidden;rotatable=0;points=[[0,0.5],[1,0.5]];portConstraint=eastwest;fontSize=12;fontColor=#333333;" parent="DuJh88yz29OxQCDJcD6v-23" vertex="1">
                    <mxGeometry y="116" width="160" height="30" as="geometry"/>
                </mxCell>
                <mxCell id="DuJh88yz29OxQCDJcD6v-28" value="street_number" style="text;strokeColor=#666666;fillColor=#f5f5f5;spacingLeft=4;spacingRight=4;overflow=hidden;rotatable=0;points=[[0,0.5],[1,0.5]];portConstraint=eastwest;fontSize=12;fontColor=#333333;" parent="DuJh88yz29OxQCDJcD6v-23" vertex="1">
                    <mxGeometry y="146" width="160" height="30" as="geometry"/>
                </mxCell>
                <mxCell id="DuJh88yz29OxQCDJcD6v-29" value="pin_code" style="text;strokeColor=#666666;fillColor=#f5f5f5;spacingLeft=4;spacingRight=4;overflow=hidden;rotatable=0;points=[[0,0.5],[1,0.5]];portConstraint=eastwest;fontSize=12;fontColor=#333333;" parent="DuJh88yz29OxQCDJcD6v-23" vertex="1">
                    <mxGeometry y="176" width="160" height="30" as="geometry"/>
                </mxCell>
                <mxCell id="DuJh88yz29OxQCDJcD6v-30" value="city" style="text;strokeColor=#666666;fillColor=#f5f5f5;spacingLeft=4;spacingRight=4;overflow=hidden;rotatable=0;points=[[0,0.5],[1,0.5]];portConstraint=eastwest;fontSize=12;fontColor=#333333;" parent="DuJh88yz29OxQCDJcD6v-23" vertex="1">
                    <mxGeometry y="206" width="160" height="30" as="geometry"/>
                </mxCell>
                <mxCell id="DuJh88yz29OxQCDJcD6v-31" value="" style="edgeStyle=entityRelationEdgeStyle;fontSize=12;html=1;endArrow=ERoneToMany;" parent="1" source="DuJh88yz29OxQCDJcD6v-28" target="DuJh88yz29OxQCDJcD6v-7" edge="1">
                    <mxGeometry width="100" height="100" relative="1" as="geometry">
                        <mxPoint x="360" y="660" as="sourcePoint"/>
                        <mxPoint x="460" y="560" as="targetPoint"/>
                    </mxGeometry>
                </mxCell>
                <mxCell id="DuJh88yz29OxQCDJcD6v-36" value="book" style="swimlane;fontStyle=0;childLayout=stackLayout;horizontal=1;startSize=26;horizontalStack=0;resizeParent=1;resizeParentMax=0;resizeLast=0;collapsible=1;marginBottom=0;align=center;fontSize=14;strokeColor=#3700CC;fillColor=#6a00ff;fontColor=#ffffff;" parent="1" vertex="1">
                    <mxGeometry x="90" y="720" width="160" height="236" as="geometry"/>
                </mxCell>
                <mxCell id="DuJh88yz29OxQCDJcD6v-37" value="id" style="text;strokeColor=#666666;fillColor=#f5f5f5;spacingLeft=4;spacingRight=4;overflow=hidden;rotatable=0;points=[[0,0.5],[1,0.5]];portConstraint=eastwest;fontSize=12;fontColor=#333333;" parent="DuJh88yz29OxQCDJcD6v-36" vertex="1">
                    <mxGeometry y="26" width="160" height="30" as="geometry"/>
                </mxCell>
                <mxCell id="DuJh88yz29OxQCDJcD6v-38" value="name" style="text;spacingLeft=4;spacingRight=4;overflow=hidden;rotatable=0;points=[[0,0.5],[1,0.5]];portConstraint=eastwest;fontSize=12;fillColor=#f5f5f5;strokeColor=#666666;fontColor=#333333;" parent="DuJh88yz29OxQCDJcD6v-36" vertex="1">
                    <mxGeometry y="56" width="160" height="30" as="geometry"/>
                </mxCell>
                <mxCell id="DuJh88yz29OxQCDJcD6v-39" value="published_date" style="text;strokeColor=#666666;fillColor=#f5f5f5;spacingLeft=4;spacingRight=4;overflow=hidden;rotatable=0;points=[[0,0.5],[1,0.5]];portConstraint=eastwest;fontSize=12;fontColor=#333333;" parent="DuJh88yz29OxQCDJcD6v-36" vertex="1">
                    <mxGeometry y="86" width="160" height="30" as="geometry"/>
                </mxCell>
                <mxCell id="DuJh88yz29OxQCDJcD6v-40" value="author" style="text;strokeColor=#666666;fillColor=#f5f5f5;spacingLeft=4;spacingRight=4;overflow=hidden;rotatable=0;points=[[0,0.5],[1,0.5]];portConstraint=eastwest;fontSize=12;fontColor=#333333;" parent="DuJh88yz29OxQCDJcD6v-36" vertex="1">
                    <mxGeometry y="116" width="160" height="30" as="geometry"/>
                </mxCell>
                <mxCell id="DuJh88yz29OxQCDJcD6v-41" value="no_of_pages" style="text;strokeColor=#666666;fillColor=#f5f5f5;spacingLeft=4;spacingRight=4;overflow=hidden;rotatable=0;points=[[0,0.5],[1,0.5]];portConstraint=eastwest;fontSize=12;fontColor=#333333;" parent="DuJh88yz29OxQCDJcD6v-36" vertex="1">
                    <mxGeometry y="146" width="160" height="30" as="geometry"/>
                </mxCell>
                <mxCell id="DuJh88yz29OxQCDJcD6v-42" value="price" style="text;strokeColor=#666666;fillColor=#f5f5f5;spacingLeft=4;spacingRight=4;overflow=hidden;rotatable=0;points=[[0,0.5],[1,0.5]];portConstraint=eastwest;fontSize=12;fontColor=#333333;" parent="DuJh88yz29OxQCDJcD6v-36" vertex="1">
                    <mxGeometry y="176" width="160" height="30" as="geometry"/>
                </mxCell>
                <mxCell id="DuJh88yz29OxQCDJcD6v-58" value="stock" style="text;strokeColor=#666666;fillColor=#f5f5f5;spacingLeft=4;spacingRight=4;overflow=hidden;rotatable=0;points=[[0,0.5],[1,0.5]];portConstraint=eastwest;fontSize=12;fontColor=#333333;" parent="DuJh88yz29OxQCDJcD6v-36" vertex="1">
                    <mxGeometry y="206" width="160" height="30" as="geometry"/>
                </mxCell>
                <mxCell id="DuJh88yz29OxQCDJcD6v-44" value="books_management" style="swimlane;fontStyle=0;childLayout=stackLayout;horizontal=1;startSize=26;horizontalStack=0;resizeParent=1;resizeParentMax=0;resizeLast=0;collapsible=1;marginBottom=0;align=center;fontSize=14;strokeColor=#3700CC;fillColor=#6a00ff;fontColor=#ffffff;" parent="1" vertex="1">
                    <mxGeometry x="310" y="720" width="160" height="86" as="geometry"/>
                </mxCell>
                <mxCell id="DuJh88yz29OxQCDJcD6v-45" value="library_id" style="text;strokeColor=#666666;fillColor=#f5f5f5;spacingLeft=4;spacingRight=4;overflow=hidden;rotatable=0;points=[[0,0.5],[1,0.5]];portConstraint=eastwest;fontSize=12;fontColor=#333333;" parent="DuJh88yz29OxQCDJcD6v-44" vertex="1">
                    <mxGeometry y="26" width="160" height="30" as="geometry"/>
                </mxCell>
                <mxCell id="DuJh88yz29OxQCDJcD6v-46" value="book_id" style="text;spacingLeft=4;spacingRight=4;overflow=hidden;rotatable=0;points=[[0,0.5],[1,0.5]];portConstraint=eastwest;fontSize=12;fillColor=#f5f5f5;strokeColor=#666666;fontColor=#333333;" parent="DuJh88yz29OxQCDJcD6v-44" vertex="1">
                    <mxGeometry y="56" width="160" height="30" as="geometry"/>
                </mxCell>
                <mxCell id="DuJh88yz29OxQCDJcD6v-59" value="" style="edgeStyle=entityRelationEdgeStyle;fontSize=12;html=1;endArrow=ERoneToMany;entryX=1;entryY=0.5;entryDx=0;entryDy=0;" parent="1" source="DuJh88yz29OxQCDJcD6v-30" target="DuJh88yz29OxQCDJcD6v-44" edge="1">
                    <mxGeometry width="100" height="100" relative="1" as="geometry">
                        <mxPoint x="360" y="770" as="sourcePoint"/>
                        <mxPoint x="460" y="670" as="targetPoint"/>
                    </mxGeometry>
                </mxCell>
                <mxCell id="DuJh88yz29OxQCDJcD6v-60" value="" style="edgeStyle=entityRelationEdgeStyle;fontSize=12;html=1;endArrow=ERoneToMany;entryX=0;entryY=0.5;entryDx=0;entryDy=0;" parent="1" source="DuJh88yz29OxQCDJcD6v-38" target="DuJh88yz29OxQCDJcD6v-46" edge="1">
                    <mxGeometry width="100" height="100" relative="1" as="geometry">
                        <mxPoint x="360" y="770" as="sourcePoint"/>
                        <mxPoint x="370" y="880" as="targetPoint"/>
                    </mxGeometry>
                </mxCell>
                <mxCell id="DuJh88yz29OxQCDJcD6v-61" value="borrower_management" style="swimlane;fontStyle=0;childLayout=stackLayout;horizontal=1;startSize=26;horizontalStack=0;resizeParent=1;resizeParentMax=0;resizeLast=0;collapsible=1;marginBottom=0;align=center;fontSize=14;strokeColor=#3700CC;fillColor=#6a00ff;fontColor=#ffffff;" parent="1" vertex="1">
                    <mxGeometry x="620" y="680" width="160" height="176" as="geometry"/>
                </mxCell>
                <mxCell id="DuJh88yz29OxQCDJcD6v-62" value="borower_id" style="text;strokeColor=#666666;fillColor=#f5f5f5;spacingLeft=4;spacingRight=4;overflow=hidden;rotatable=0;points=[[0,0.5],[1,0.5]];portConstraint=eastwest;fontSize=12;fontColor=#333333;" parent="DuJh88yz29OxQCDJcD6v-61" vertex="1">
                    <mxGeometry y="26" width="160" height="30" as="geometry"/>
                </mxCell>
                <mxCell id="DuJh88yz29OxQCDJcD6v-63" value="book_id" style="text;spacingLeft=4;spacingRight=4;overflow=hidden;rotatable=0;points=[[0,0.5],[1,0.5]];portConstraint=eastwest;fontSize=12;fillColor=#f5f5f5;strokeColor=#666666;fontColor=#333333;" parent="DuJh88yz29OxQCDJcD6v-61" vertex="1">
                    <mxGeometry y="56" width="160" height="30" as="geometry"/>
                </mxCell>
                <mxCell id="DuJh88yz29OxQCDJcD6v-64" value="is_returned" style="text;strokeColor=#666666;fillColor=#f5f5f5;spacingLeft=4;spacingRight=4;overflow=hidden;rotatable=0;points=[[0,0.5],[1,0.5]];portConstraint=eastwest;fontSize=12;fontColor=#333333;" parent="DuJh88yz29OxQCDJcD6v-61" vertex="1">
                    <mxGeometry y="86" width="160" height="30" as="geometry"/>
                </mxCell>
                <mxCell id="DuJh88yz29OxQCDJcD6v-69" value="borrowing_date" style="text;strokeColor=#666666;fillColor=#f5f5f5;spacingLeft=4;spacingRight=4;overflow=hidden;rotatable=0;points=[[0,0.5],[1,0.5]];portConstraint=eastwest;fontSize=12;fontColor=#333333;" parent="DuJh88yz29OxQCDJcD6v-61" vertex="1">
                    <mxGeometry y="116" width="160" height="30" as="geometry"/>
                </mxCell>
                <mxCell id="DuJh88yz29OxQCDJcD6v-73" value="returning_date" style="text;strokeColor=#666666;fillColor=#f5f5f5;spacingLeft=4;spacingRight=4;overflow=hidden;rotatable=0;points=[[0,0.5],[1,0.5]];portConstraint=eastwest;fontSize=12;fontColor=#333333;" parent="DuJh88yz29OxQCDJcD6v-61" vertex="1">
                    <mxGeometry y="146" width="160" height="30" as="geometry"/>
                </mxCell>
                <mxCell id="DuJh88yz29OxQCDJcD6v-70" value="" style="edgeStyle=entityRelationEdgeStyle;fontSize=12;html=1;endArrow=ERoneToMany;entryX=0;entryY=0.5;entryDx=0;entryDy=0;" parent="1" target="DuJh88yz29OxQCDJcD6v-62" edge="1">
                    <mxGeometry width="100" height="100" relative="1" as="geometry">
                        <mxPoint x="140" y="666" as="sourcePoint"/>
                        <mxPoint x="460" y="670" as="targetPoint"/>
                    </mxGeometry>
                </mxCell>
                <mxCell id="DuJh88yz29OxQCDJcD6v-71" value="" style="edgeStyle=entityRelationEdgeStyle;fontSize=12;html=1;endArrow=ERoneToMany;entryX=0.006;entryY=0.233;entryDx=0;entryDy=0;entryPerimeter=0;" parent="1" target="DuJh88yz29OxQCDJcD6v-63" edge="1">
                    <mxGeometry width="100" height="100" relative="1" as="geometry">
                        <mxPoint x="250" y="940" as="sourcePoint"/>
                        <mxPoint x="630" y="751" as="targetPoint"/>
                    </mxGeometry>
                </mxCell>
                <mxCell id="DuJh88yz29OxQCDJcD6v-74" value="&lt;font color=&quot;#663300&quot;&gt;&lt;span style=&quot;font-size: 20px&quot;&gt;Application workflow&lt;/span&gt;&lt;/font&gt;" style="label;whiteSpace=wrap;html=1;image=data:image/png,iVBORw0KGgoAAAANSUhEUgAAAOEAAADhCAMAAAAJbSJIAAAAYFBMVEWAgID///97e3t9fX14eHjX19eCgoLCwsL7+/vw8PCOjo6Hh4f4+Pjz8/OEhITb29vh4eGXl5eqqqqdnZ3BwcHn5+empqbIyMi1tbXS0tLk5OS7u7uZmZmgoKCxsbHr6+vogKcKAAAPKklEQVR4nN2d15qbMBCFsQYwiF5MMe393zISuFCEEG2NMjf5Nsmu+VeARpozR8rtzLBt8+FreZ6nbdzv7R85DU3z/OejcRzHto0zr0E544cazkNLi7AKLEVtA41D/QQC3cJBFGap9nTOQD2Y0G60OKywqxAKAFDEgvxPIN+guLgKY605lvM4QttLQ+zCGjIWKvl+F4epZx91XYcQmj6BozfcZrQxKLmNcXj3zQMubjehmWeliw6DG2AiN8jyvZS7CA2vDnRAh8P1MMmLCNfanlt2O2GTRqAeP3QMSlBRkD62vn82Ej6LgOCdT/ehRAhn/ibILYQNwTvz1pyDBFw8/oDQueMf4L0hEU6dUwkNL/kZ3gtShdA/jdCJ8W/xXpAQpCueSHHCJtOvwEcDkBUL36yihA9ye/4arBeA9EwwFRAjbMKrDN83kJIJjaMIoVn/xcS+PpAeCyQ7y4RGoV/p/hwEwvl+Qs+6LJ9CJ4/guY/QvOADOAyAgj918Am1Sw/gK1TMHUYuYXb1AewClPs2wgZLMIBdqNX8S3We0HOlGMAuEJ5ddcwS5opEgOROtbyVhKn662teGQAzU+MMoXSAJFQ2IpswleYdMwhNmFCT6hH8BCis1w2LsPn1pW4NsBgrKgahHcg5hCQgEiKs5XwI21BTAcKnhK/Rb0CzTCjvPUoDqkXCXOJ7lAaM9xrHhIbcQ8gYxDGhJvkQTp/EMWEo+RCSZUbBJbTdX1/g7gDMJZR7qugCTB7hXfrHkMz6Go+wlv4xXCKM/ntC2WdDGnxC/N8Tlv89YfLfE8b/w2zh8Qi9/2DGRw2P0Pn15e2PhaztP5gQUcYnlH0BTAgffEJH9hlxst022cWQ/W2Kxnv7E0LDknoQpzum0722XOoJAyYVb8aOcCXxIKJ6gsMgNGUq/g4D8FSXwarMeNIS6pMd75nq2l3SR3HyHmUQvjZxMikR32UZm0f4flBDCRHV10apzd/FeO/6yzeKn53gfHivjncxPmlrIVlugz66qIhPaH1u4lQOyVcXPa1Js7ATpX4lYp48+RtY31SmXtprc79vIjOS5GFE1VcP3eh8QmtYuomvKX8eBkC/eJ/AEqGC+rmrH1x+GIfyUrJuWCQc5Xb3aw8j6AP1Bd1nWiQc5+dmcl1GgGRQSjPoNtMyoYJGohQv+MtGPPEAtRxJLlspkAChgsYSuBxfjxFUa5xod9VPPuH7uydy1Bxf614FRqvFa0kkRqhPhIxGXl2HEVCZT9a6b8moEKECCkNU/AzVK2RygNSE0YL4KdCLETI1cGRhUli/HkhAVsHo6DK+6z1RQkWtWb0ohhdavxtIghdqrMtyyu9SSJhQQRG7w8/JK/SLVyuoqJrxH/D6O/XihORhnOsMc/IITrBR4NCRj6vyuX7DbHApKwjJfw5nmxhtLfyrpm7apx7ms10xj1HuvIqQ3+Bne3Fknfx6JS9ON7r7800/djFufVlHSD6hYuxBfsPx40g5w/ijc4tQotjn9sJ60+YsPqHO+qClfluDmrfoR2JSXxMdh+lzoSv9WTFeeSJ56SiQy5qBRuEQzMCFvSY11JoGrLJO+UPXxkz/9QZCwmiJ9BQTzEdeJHQ4Vw9o56OErJLaKAl9VlPr7I/YREi+zS2ErXCMxkuLJLBcBX1ssIAVb08spFiYoOW+uBXWI5z1B9is+kIQrnQWsZ2GepmlcVxkddhG8or2izor4jTNvWez1uTLqzhv8B26NoByflb6u3BSvj3HLm0iWXVmS93h5wbJi5fsOfbqSxEEMXeGPDMemYC7yn7lHnlBBPcjfMZWxqPASCSB4hNmYvUYCllwUqnDw/YyLJof8gnFm0fbdDj9k/v1cU8sodF7EXK1ieu6Ebqk/9QbtslXL2EQtxvBmJ3y5yBBVa3kGP+/UZj+PXHXZ4EQDH/MWKmwqb2SLnGCOvXMg1wrDdO7kyR328IMjSwkxoT+1rwZWgPAKMufu15A9jPPKqzv2EEYtcxM1Sa7BKataaUKAc0xzTWpmO2Yz/xeB6DutdCEcPSjJ4TeAfX7FhS5OKjCrLinraUuCf8T9Cuvdd+9x1mdRAF20VHuoOPkeaoYOk7W9lo+0NVFt5bo/0P7b+p72XHURzKEbVNCUzIRxiD6RfpZQlktI9qYVM3YurZEWsSxin2O0JZV6w0l4/XN1CY2cipMAbN2r8aZd/eHL5fBUBdgvdYB3J6Z6DXMnnyI4L5mQpOva3uvPKRDBPc9dCmX0PrkPE95VG00EP6ko5i/1/ZVSjeBRJOGGn1eMv6SNvGb9RjJ5RVfrwC1Nw9WS/ulfVuJ9NdFe7EAt/fkeWiRsOx9KcWdqva0lzcDL2gTSTYzFGEUVx/GkXQvQwK7+vpgV/t5UVFbF6AOC7h0dbtMOE5+8uuamKLRzNCmmwKVGRQNE9irOgkjd6Rq6pYMIrUnNN7roG7lP8aZBLLGFU0jEtAmvtZN070AM1OuoGl7B6j61JW96kZBrH6ojkeR3ALxD+VewwDAU2d9OxLSJn7Wvn2B/zuMPFF+f7MCckOGcPI7dYtWSBFmVV2awvrt5AEqZlb2egsF4Row6OxzJLzqZ08kHT72ReW9xES8yg0QM3/azcmTHzySAFY4c2iQPSh7rqnjz+kvKWToqn/3TAJSrdqb0xA9htnzKqXCIGsf/+K0zFL/4DgkWr/DGafgfB9tR6zUYqhc4Z7T1S9PowRACp67N7t4TvqW1qpNQOeL2owHle0dr8GEV1GSf5KemU1/vet9otCkc2NCScu11mFHy70OlkuXC8t31qJgg54G1IDpIz0KhxZuLViv2uujIaRYgdjhgEaOmdssmxRDZJ6ddnCwP9b00qzClk7GQbBu1hbayH92rSDJyMCJfZCdznUq8Qlni4eAAkHGltNunl5ahLT0CYNzOt+SxM9RnYpFC6lF7j3NFeeR2hxt22ZNFCArW3/smWHbDqGlR63GcVFkNYmsKOI4fakSt5yz+qzdzdpEvuoLoQuIE510YV+FT7hkQUsH8pfiRMMPecMnQCiga0MIF7+BNHwRaeICoZCTAhV7ZesOsNsfhl+LSRMXCEU9aGkqnM2mwoeHo4WWcArMJ1xjEkUm53Kh3+MQOm/lkZloeHvtc0omU5tV3c+jpB05q+VtfG3iBrfr9tje5faWtWG/G3FWX8+Cb6KgSHj8U2mvTEBTrgOmS9v00xrD1vR23Pw6JmwYnU+imCQNA1zWd+3hbAE1bOeZx2Fp7WstskafPVGb7LWdpypMxcVlUse5L9QqYjiNn8d1ErRHsu9dgI1N56eEj4OWeO0ij1yubuEoqQuahr41ilqrSkzTok4isgpp7/HD9HvueFE5VQwdbp/U73D6xuGqxC7GjhcsQkNWzReNscibSSi1l/DYnpVNKLGFKct0j6ncCyVFZIkv2YSGDBKMaSDGeVZTx/LuDykVpu/ivMHNvMvXDnffZ0KSQG/5rM/XJr4bTmzZEFH5ztZCPuFnPjEqqSYNNXznh4bOr3KjbwFZCju6LgB9S53pQh0f9ZICTRa5d78IaOOlfvz+aZ7m9R33aKhVL9u+L2gTLQWs/oInvr4YeliMN/VlT4WhIKq5uP8lqNEgFS1BxFVw+LZNryvcm9Y2Y1XIF8MdFradYtaC4scBUA+3+bxl5V5LODmS1QyvOHEAhCONwUNfJuz2oQCPd5Iel2MESMZrwabTRQm5KH1ToC9jfSUBJtLDSXXIfC0XBF0Fg+k+tpnBNQTRoOoMs5zmo6sUc8L6tEn1w05/74AJCJj1dv/jOCTq9QUu88B5v/6pyhQQZpfae9I9YTezOeGek1c/ulvJ3TljTGf0ixEr/NpQNLM576TBhpLJPjpydyZz8q9h48saRzpwZ5VCVIH5R6aCb4eR2QJBPryOVZ57gJJ54Z6jZYFy+v3a2grG/nz941GNZrG1roLjnoZhNFRnepp1Ii19BIXHlbcVE9e2lYTU85z5Uv0GHUv3YA1mW8GyyNjxP5rZz8MnZJWAQa0WhReOn9bRzsLfFw7puCryZes9ttH4Fs89UITM6JxnXoTk0VS3vWg7YxS3rO+ekK+gP2NOvc1VEGB5HF/RqRMtHb6OH3MDCz0LENBxkqWesOWLF8z9Grd67lGR6RoxgmE+tTSuwyQqA4yx5bqu3gvXtSzy10FZJWEWp9pzlQ2TzTOJ3+4qSDKmbV50hmGTcByzF45D/87YJOBoCq74a895wGStnyy8WE8PQ4sWMo2d5wH/1jnRIIn/Yo6xUSPcH0iEi/VS2v1BpYkiXSxHnK1O12iZiNj8uKC2goKT0DHaxFbRlqR/5A/ZpNUK/RefcJVKgaQwZ5sKdraC6zKIkVphRLj2xGOaP+JaIMHaEjZtx1mf8FrDnzKu4284epxKmqyI5JEHqhPtJs/KbY1jZ514TKWEOKoFOnmWgioTS9p6szGHV0fp5Zhwj0YBaCMd0NRZa9Z3URjOI7/vNz0f+HqwCMXfphxQqtmzyjC755r/fDQmbRsxhhka/Zpkcmbz8D0tj7MksI7xFfzDE49fSwZQPln2IGg2TtJxvf2FHOfJPxlChmLonBOPWZbsZ3wOmizyGJooqU88nuq+GISOXB5Y/RA+8fhCRaZ1AYwVAVO5t3VS/HVMD1ObI7wV15YnzMRUAT1PKOFxwDOnjM0SSjiKM4CzhLe7XC/U+dO3ZgkHdiGXj5l6Lp/w9ryyVGgYbDOdRcKbLYmhMExtrQQJp7YhlwzEMWBZJLy8cI9uFiX8RfcC4e2WXsD8ihPLtiSLhBcVtXUBSra4B7ZMeLv55TW0UOMgN6jA3rsI4e2mXfLE41KopClGSE88vorhXheAhDxzVhCScSyvwwgQCVf5xAnJ8xheQoAJyK1XFPjWEF7AVLC1O4pX7TqvI6QnuyU/tPkEpM/YCh5HeKO6vWjp+LqT8NxkgwHQBsIbLehF5yvahniqO3eg8ymEN3oCQQJ/dNQ6IFUJta32IpsJaTzj0j1Zgkl+vBXd98gGdhHeWtleueZguzVwoBK6Yq/Pz17CltJPw+M8BTu4zlfweYDzzRGEbTheGmK39VzZU/2jFStwqWniUYXzwwjbsKn9SkQ9StR1pJ2xoOLiipq/HKoKOJawC9v0NWopiC194CjIivbfdSuo6iLXnkcdL9iPMwg/QR0F6ZHH99l4OwueeBH/AM8y2q1OXevUAAAAAElFTkSuQmCC;fillColor=#60a917;strokeColor=#2D7600;fontColor=#ffffff;" parent="1" vertex="1">
                    <mxGeometry x="370" y="1000" width="300" height="60" as="geometry"/>
                </mxCell>
                <mxCell id="78H8jFkRbbpsO2KQ7wcT-4" style="edgeStyle=orthogonalEdgeStyle;rounded=0;orthogonalLoop=1;jettySize=auto;html=1;" parent="1" source="78H8jFkRbbpsO2KQ7wcT-3" edge="1">
                    <mxGeometry relative="1" as="geometry">
                        <mxPoint x="210" y="1155" as="targetPoint"/>
                    </mxGeometry>
                </mxCell>
                <mxCell id="78H8jFkRbbpsO2KQ7wcT-5" style="edgeStyle=orthogonalEdgeStyle;rounded=0;orthogonalLoop=1;jettySize=auto;html=1;entryX=0;entryY=0.5;entryDx=0;entryDy=0;" parent="1" source="78H8jFkRbbpsO2KQ7wcT-3" target="78H8jFkRbbpsO2KQ7wcT-41" edge="1">
                    <mxGeometry relative="1" as="geometry">
                        <mxPoint x="185" y="1310" as="targetPoint"/>
                        <Array as="points">
                            <mxPoint x="65" y="1340"/>
                        </Array>
                    </mxGeometry>
                </mxCell>
                <mxCell id="78H8jFkRbbpsO2KQ7wcT-3" value="user has account" style="rhombus;whiteSpace=wrap;html=1;strokeColor=#B20000;fillColor=#e51400;fontColor=#ffffff;" parent="1" vertex="1">
                    <mxGeometry y="1100" width="130" height="110" as="geometry"/>
                </mxCell>
                <mxCell id="78H8jFkRbbpsO2KQ7wcT-6" value="Yes" style="text;html=1;align=center;verticalAlign=middle;resizable=0;points=[];autosize=1;" parent="1" vertex="1">
                    <mxGeometry x="130" y="1130" width="40" height="20" as="geometry"/>
                </mxCell>
                <mxCell id="78H8jFkRbbpsO2KQ7wcT-7" value="No" style="text;html=1;align=center;verticalAlign=middle;resizable=0;points=[];autosize=1;" parent="1" vertex="1">
                    <mxGeometry x="70" y="1250" width="30" height="20" as="geometry"/>
                </mxCell>
                <mxCell id="78H8jFkRbbpsO2KQ7wcT-16" style="edgeStyle=orthogonalEdgeStyle;rounded=0;orthogonalLoop=1;jettySize=auto;html=1;entryX=0.5;entryY=0;entryDx=0;entryDy=0;" parent="1" source="78H8jFkRbbpsO2KQ7wcT-15" target="78H8jFkRbbpsO2KQ7wcT-30" edge="1">
                    <mxGeometry relative="1" as="geometry">
                        <mxPoint x="450" y="1310" as="targetPoint"/>
                    </mxGeometry>
                </mxCell>
                <mxCell id="78H8jFkRbbpsO2KQ7wcT-18" style="edgeStyle=orthogonalEdgeStyle;rounded=0;orthogonalLoop=1;jettySize=auto;html=1;" parent="1" source="78H8jFkRbbpsO2KQ7wcT-15" edge="1">
                    <mxGeometry relative="1" as="geometry">
                        <mxPoint x="610" y="1155" as="targetPoint"/>
                    </mxGeometry>
                </mxCell>
                <mxCell id="78H8jFkRbbpsO2KQ7wcT-15" value="has already library joined or created" style="rhombus;whiteSpace=wrap;html=1;strokeColor=#B20000;fillColor=#e51400;fontColor=#ffffff;" parent="1" vertex="1">
                    <mxGeometry x="390" y="1095" width="120" height="120" as="geometry"/>
                </mxCell>
                <mxCell id="78H8jFkRbbpsO2KQ7wcT-17" value="No" style="text;html=1;align=center;verticalAlign=middle;resizable=0;points=[];autosize=1;" parent="1" vertex="1">
                    <mxGeometry x="465" y="1240" width="30" height="20" as="geometry"/>
                </mxCell>
                <mxCell id="78H8jFkRbbpsO2KQ7wcT-19" value="Yes" style="text;html=1;align=center;verticalAlign=middle;resizable=0;points=[];autosize=1;" parent="1" vertex="1">
                    <mxGeometry x="520" y="1130" width="40" height="20" as="geometry"/>
                </mxCell>
                <mxCell id="78H8jFkRbbpsO2KQ7wcT-21" style="edgeStyle=orthogonalEdgeStyle;rounded=0;orthogonalLoop=1;jettySize=auto;html=1;" parent="1" source="78H8jFkRbbpsO2KQ7wcT-20" edge="1">
                    <mxGeometry relative="1" as="geometry">
                        <mxPoint x="820" y="1155" as="targetPoint"/>
                    </mxGeometry>
                </mxCell>
                <mxCell id="78H8jFkRbbpsO2KQ7wcT-22" style="edgeStyle=orthogonalEdgeStyle;rounded=0;orthogonalLoop=1;jettySize=auto;html=1;" parent="1" source="78H8jFkRbbpsO2KQ7wcT-20" edge="1">
                    <mxGeometry relative="1" as="geometry">
                        <mxPoint x="670" y="1310" as="targetPoint"/>
                    </mxGeometry>
                </mxCell>
                <mxCell id="78H8jFkRbbpsO2KQ7wcT-20" value="is borrower" style="rhombus;whiteSpace=wrap;html=1;strokeColor=#B20000;fillColor=#e51400;fontColor=#ffffff;" parent="1" vertex="1">
                    <mxGeometry x="610" y="1095" width="120" height="120" as="geometry"/>
                </mxCell>
                <mxCell id="78H8jFkRbbpsO2KQ7wcT-23" value="No&amp;nbsp;" style="text;html=1;align=center;verticalAlign=middle;resizable=0;points=[];autosize=1;" parent="1" vertex="1">
                    <mxGeometry x="680" y="1250" width="30" height="20" as="geometry"/>
                </mxCell>
                <mxCell id="78H8jFkRbbpsO2KQ7wcT-24" value="Yes" style="text;html=1;align=center;verticalAlign=middle;resizable=0;points=[];autosize=1;" parent="1" vertex="1">
                    <mxGeometry x="750" y="1130" width="40" height="20" as="geometry"/>
                </mxCell>
                <mxCell id="78H8jFkRbbpsO2KQ7wcT-25" value="Go to borrower`s panel" style="whiteSpace=wrap;html=1;strokeColor=#A50040;fillColor=#d80073;fontColor=#ffffff;" parent="1" vertex="1">
                    <mxGeometry x="820" y="1110" width="163" height="90" as="geometry"/>
                </mxCell>
                <mxCell id="78H8jFkRbbpsO2KQ7wcT-26" value="Go to librarians panel" style="whiteSpace=wrap;html=1;strokeColor=#C73500;fillColor=#fa6800;fontColor=#ffffff;" parent="1" vertex="1">
                    <mxGeometry x="580" y="1310" width="190" height="80" as="geometry"/>
                </mxCell>
                <mxCell id="78H8jFkRbbpsO2KQ7wcT-32" style="edgeStyle=orthogonalEdgeStyle;rounded=0;orthogonalLoop=1;jettySize=auto;html=1;" parent="1" source="78H8jFkRbbpsO2KQ7wcT-30" edge="1">
                    <mxGeometry relative="1" as="geometry">
                        <mxPoint x="450" y="1580" as="targetPoint"/>
                    </mxGeometry>
                </mxCell>
                <mxCell id="78H8jFkRbbpsO2KQ7wcT-33" style="edgeStyle=orthogonalEdgeStyle;rounded=0;orthogonalLoop=1;jettySize=auto;html=1;" parent="1" source="78H8jFkRbbpsO2KQ7wcT-30" edge="1">
                    <mxGeometry relative="1" as="geometry">
                        <mxPoint x="610" y="1470" as="targetPoint"/>
                    </mxGeometry>
                </mxCell>
                <mxCell id="78H8jFkRbbpsO2KQ7wcT-30" value="Join or create" style="rhombus;whiteSpace=wrap;html=1;strokeColor=#C73500;fillColor=#fa6800;fontColor=#ffffff;" parent="1" vertex="1">
                    <mxGeometry x="390" y="1430" width="120" height="80" as="geometry"/>
                </mxCell>
                <mxCell id="78H8jFkRbbpsO2KQ7wcT-40" style="edgeStyle=orthogonalEdgeStyle;rounded=0;orthogonalLoop=1;jettySize=auto;html=1;entryX=0.5;entryY=1;entryDx=0;entryDy=0;" parent="1" source="78H8jFkRbbpsO2KQ7wcT-34" target="78H8jFkRbbpsO2KQ7wcT-25" edge="1">
                    <mxGeometry relative="1" as="geometry"/>
                </mxCell>
                <mxCell id="78H8jFkRbbpsO2KQ7wcT-34" value="Enter the code&amp;nbsp;" style="whiteSpace=wrap;html=1;strokeColor=#3700CC;fillColor=#6a00ff;fontColor=#ffffff;" parent="1" vertex="1">
                    <mxGeometry x="390" y="1580" width="120" height="60" as="geometry"/>
                </mxCell>
                <mxCell id="78H8jFkRbbpsO2KQ7wcT-35" value="Join" style="text;html=1;align=center;verticalAlign=middle;resizable=0;points=[];autosize=1;" parent="1" vertex="1">
                    <mxGeometry x="450" y="1520" width="40" height="20" as="geometry"/>
                </mxCell>
                <mxCell id="78H8jFkRbbpsO2KQ7wcT-36" value="Create" style="text;html=1;align=center;verticalAlign=middle;resizable=0;points=[];autosize=1;" parent="1" vertex="1">
                    <mxGeometry x="515" y="1440" width="50" height="20" as="geometry"/>
                </mxCell>
                <mxCell id="78H8jFkRbbpsO2KQ7wcT-39" style="edgeStyle=orthogonalEdgeStyle;rounded=0;orthogonalLoop=1;jettySize=auto;html=1;" parent="1" source="78H8jFkRbbpsO2KQ7wcT-38" target="78H8jFkRbbpsO2KQ7wcT-26" edge="1">
                    <mxGeometry relative="1" as="geometry"/>
                </mxCell>
                <mxCell id="78H8jFkRbbpsO2KQ7wcT-38" value="Create a library" style="whiteSpace=wrap;html=1;strokeColor=#314354;fillColor=#647687;fontColor=#ffffff;" parent="1" vertex="1">
                    <mxGeometry x="610" y="1440" width="120" height="60" as="geometry"/>
                </mxCell>
                <mxCell id="78H8jFkRbbpsO2KQ7wcT-42" style="edgeStyle=orthogonalEdgeStyle;rounded=0;orthogonalLoop=1;jettySize=auto;html=1;entryX=0;entryY=0.5;entryDx=0;entryDy=0;" parent="1" source="78H8jFkRbbpsO2KQ7wcT-41" target="78H8jFkRbbpsO2KQ7wcT-30" edge="1">
                    <mxGeometry relative="1" as="geometry"/>
                </mxCell>
                <mxCell id="78H8jFkRbbpsO2KQ7wcT-41" value="create a account" style="whiteSpace=wrap;html=1;strokeColor=#C73500;fillColor=#fa6800;fontColor=#ffffff;" parent="1" vertex="1">
                    <mxGeometry x="125" y="1310" width="120" height="60" as="geometry"/>
                </mxCell>
                <mxCell id="78H8jFkRbbpsO2KQ7wcT-44" style="edgeStyle=orthogonalEdgeStyle;rounded=0;orthogonalLoop=1;jettySize=auto;html=1;entryX=0;entryY=0.5;entryDx=0;entryDy=0;" parent="1" source="78H8jFkRbbpsO2KQ7wcT-43" target="78H8jFkRbbpsO2KQ7wcT-15" edge="1">
                    <mxGeometry relative="1" as="geometry"/>
                </mxCell>
                <mxCell id="78H8jFkRbbpsO2KQ7wcT-43" value="Signin" style="rounded=0;whiteSpace=wrap;html=1;strokeColor=#3A5431;fillColor=#6d8764;fontColor=#ffffff;" parent="1" vertex="1">
                    <mxGeometry x="210" y="1125" width="120" height="60" as="geometry"/>
                </mxCell>
            </root>
        </mxGraphModel>
    </diagram>
</mxfile>